# xmcd CD Database Entry
#
# Track frame offsets:
# 150
# 16135
# 32447
# 42795
# 62165
# 76827
# 87425
# 103932
# 125847
# 135882
# 153777
# 165947
#
# Disc length: 2400 seconds
#
# Revision: 1
# Processed by: cddbd v1.4PL0 Copyright (c) Steve Scherf et al.
# Submitted via: tcd 2.0b
#
DISCID=84095e0c
DTITLE=David Morgan - I Never Knew She Was Married
DYEAR=1900
DGENRE=
TTITLE0=Fan It
TTITLE1=I Never Knew She Was Married
TTITLE2=The Last Steam Engine
TTITLE3=Careless Love
TTITLE4=The MIddle of the Night
TTITLE5=Chloe
TTITLE6=Kind Hearted Woman Blues
TTITLE7=My World Is Getting Better Every Day
TTITLE8=The Cannonball Rag
TTITLE9=Baby Don't Go
TTITLE10=The Waterview Rag
TTITLE11=Smile Down On Me Jesus
EXTD=
EXTT0=
EXTT1=
EXTT2=
EXTT3=
EXTT4=
EXTT5=
EXTT6=
EXTT7=
EXTT8=
EXTT9=
EXTT10=
EXTT11=
PLAYORDER=
